<svg xmlns="http://www.w3.org/2000/svg" viewBox="0 0 640 360" width="640" height="360" role="img"><rect width="640" height="360" fill="#FFF4E5"/><rect x="40" y="30" width="560" height="300" rx="14" fill="#fff" stroke="#E2E8F0"/><rect x="40" y="30" width="560" height="34" rx="14" fill="#0F172A"/><rect x="40" y="50" width="560" height="14" fill="#0F172A"/><circle cx="62" cy="47" r="5" fill="#F7931E"/><circle cx="80" cy="47" r="5" fill="#94A3B8"/><circle cx="98" cy="47" r="5" fill="#94A3B8"/><rect x="70" y="100" width="98" height="98" rx="10" fill="#F7931E"/><rect x="174" y="100" width="98" height="98" rx="10" fill="#E2E8F0"/><rect x="70" y="204" width="98" height="98" rx="10" fill="#E2E8F0"/><rect x="174" y="204" width="98" height="98" rx="10" fill="#0F172A"/><path d="M360 290 L360 100 M360 290 L570 290" stroke="#CBD5E1" fill="none"/><path d="M365 110 C420 112 450 140 480 200 S550 270 565 285" stroke="#F7931E" stroke-width="4" fill="none"/><path d="M365 150 C420 160 470 230 565 285" stroke="#94A3B8" stroke-width="3" stroke-dasharray="6 5" fill="none"/></svg>