<svg xmlns="http://www.w3.org/2000/svg" viewBox="0 0 640 360" width="640" height="360" role="img"><rect width="640" height="360" fill="#FFF4E5"/><rect x="40" y="30" width="560" height="300" rx="14" fill="#fff" stroke="#E2E8F0"/><rect x="40" y="30" width="560" height="34" rx="14" fill="#0F172A"/><rect x="40" y="50" width="560" height="14" fill="#0F172A"/><circle cx="62" cy="47" r="5" fill="#F7931E"/><circle cx="80" cy="47" r="5" fill="#94A3B8"/><circle cx="98" cy="47" r="5" fill="#94A3B8"/><rect x="62" y="80" width="170" height="240" rx="10" fill="#F1F5F9"/><rect x="74" y="92" width="60" height="10" rx="5" fill="#0F172A"/><rect x="72" y="116" width="150" height="56" rx="8" fill="#fff" stroke="#E2E8F0"/><rect x="82" y="128" width="90" height="8" rx="4" fill="#94A3B8"/><rect x="82" y="146" width="34" height="12" rx="6" fill="#F7931E"/><rect x="72" y="182" width="150" height="56" rx="8" fill="#fff" stroke="#E2E8F0"/><rect x="82" y="194" width="80" height="8" rx="4" fill="#94A3B8"/><rect x="82" y="212" width="34" height="12" rx="6" fill="#F7931E"/><rect x="72" y="248" width="150" height="56" rx="8" fill="#fff" stroke="#E2E8F0"/><rect x="82" y="260" width="70" height="8" rx="4" fill="#94A3B8"/><rect x="82" y="278" width="34" height="12" rx="6" fill="#F7931E"/><rect x="244" y="80" width="170" height="240" rx="10" fill="#F1F5F9"/><rect x="256" y="92" width="60" height="10" rx="5" fill="#0F172A"/><rect x="254" y="116" width="150" height="56" rx="8" fill="#fff" stroke="#E2E8F0"/><rect x="264" y="128" width="90" height="8" rx="4" fill="#94A3B8"/><rect x="264" y="146" width="34" height="12" rx="6" fill="#16A34A"/><rect x="254" y="182" width="150" height="56" rx="8" fill="#fff" stroke="#E2E8F0"/><rect x="264" y="194" width="80" height="8" rx="4" fill="#94A3B8"/><rect x="264" y="212" width="34" height="12" rx="6" fill="#16A34A"/><rect x="426" y="80" width="170" height="240" rx="10" fill="#F1F5F9"/><rect x="438" y="92" width="60" height="10" rx="5" fill="#0F172A"/><rect x="436" y="116" width="150" height="56" rx="8" fill="#fff" stroke="#E2E8F0"/><rect x="446" y="128" width="90" height="8" rx="4" fill="#94A3B8"/><rect x="446" y="146" width="34" height="12" rx="6" fill="#64748B"/><rect x="436" y="182" width="150" height="56" rx="8" fill="#fff" stroke="#E2E8F0"/><rect x="446" y="194" width="80" height="8" rx="4" fill="#94A3B8"/><rect x="446" y="212" width="34" height="12" rx="6" fill="#64748B"/><rect x="436" y="248" width="150" height="56" rx="8" fill="#fff" stroke="#E2E8F0"/><rect x="446" y="260" width="70" height="8" rx="4" fill="#94A3B8"/><rect x="446" y="278" width="34" height="12" rx="6" fill="#64748B"/></svg>